<?xml version="1.0" encoding="utf-8"?>
<!-- Generator: Adobe Illustrator 24.0.1, SVG Export Plug-In . SVG Version: 6.00 Build 0)  -->
<svg version="1.1" id="Camada_1" xmlns="http://www.w3.org/2000/svg" xmlns:xlink="http://www.w3.org/1999/xlink" x="0px" y="0px"
	 viewBox="0 0 405.8 150.2" style="enable-background:new 0 0 405.8 150.2;" xml:space="preserve">
<style type="text/css">
	.st0{fill:#001CA8;}
</style>
<path id="letter-l" class="st0" d="M210.8,62c-0.5-0.9-1.5-1.5-2.6-1.5h-28.7c-1.1,0-2.1,0.6-2.6,1.5l-14,25.1V3c0-1.7-1.3-3-3-3
	h-27.2c-1.7,0-3,1.3-3,3v144.2l0,0c0,0,0,0,0,0.1c0,0.2,0,0.4,0.1,0.6v0.1c0.1,0.2,0.2,0.4,0.3,0.6l0,0c0,0,0,0,0,0.1
	c0.1,0.2,0.2,0.3,0.4,0.5c0,0,0,0,0.1,0.1c0.2,0.2,0.3,0.3,0.5,0.4l0.1,0.1c0.2,0.1,0.4,0.2,0.6,0.3c0.3,0.1,0.5,0.1,0.8,0.1h27.2
	c1.1,0,2.1-0.6,2.6-1.5L210.8,65C211.3,64.1,211.3,62.9,210.8,62z"/>
<path id="letter-a" class="st0" d="M116.4,2.3c0-0.1,0-0.1-0.1-0.2c-0.1-0.2-0.1-0.3-0.2-0.5V1.5c0,0,0,0,0-0.1
	c-0.1-0.2-0.3-0.4-0.4-0.6l0,0c-0.2-0.2-0.3-0.3-0.5-0.4c-0.1,0-0.1-0.1-0.2-0.1c-0.2-0.1-0.3-0.1-0.5-0.2c-0.1,0-0.1,0-0.2-0.1
	c-0.4,0-0.6,0-0.8,0H88.9h-2.6H62.5c-1.1,0-2.1,0.6-2.6,1.5s-0.5,2.1,0,3L70.7,23c0.1,0.1,0.2,0.3,0.3,0.4L0.4,145.7
	c-0.5,0.9-0.5,2.1,0,3s1.5,1.5,2.6,1.5h27.2c1.1,0,2.1-0.6,2.6-1.5l50.5-87.4v85.9c0,1.4,0.9,2.5,2.2,2.9c0.3,0.1,0.5,0.1,0.8,0.1
	c1.1,0,2.1-0.6,2.6-1.5l27.2-47.1c0.3-0.5,0.4-1,0.4-1.5V3C116.5,2.8,116.4,2.5,116.4,2.3z"/>
<path id="letter-g" class="st0" d="M306.2,85c1.1,0,2-0.6,2.6-1.5L319.6,65c0.5-0.9,0.5-2.1,0-3s-1.5-1.5-2.6-1.5h-21.6h-4.8h-22.3
	c-0.3,0-0.5,0-0.8,0.1c-0.1,0-0.2,0.1-0.3,0.1c-0.2,0.1-0.3,0.1-0.4,0.2c-0.1,0.1-0.2,0.1-0.3,0.2c-0.1,0.1-0.3,0.2-0.4,0.3
	s-0.1,0.2-0.2,0.3s-0.2,0.2-0.3,0.4l-6.7,11.6c0,0.1-0.1,0.2-0.1,0.3l-8.7,15.1V24.5h12.6c1.1,0,2-0.6,2.6-1.5l10.8-18.5
	c0.5-0.9,0.5-2.1,0-3S274.6,0,273.5,0h-26.4h-27.2c-1.7,0-3,1.3-3,3v144.2c0,0.2,0,0.5,0.1,0.7v0.1c0.1,0.2,0.2,0.4,0.3,0.6l0,0
	c0,0,0,0,0,0.1c0.1,0.2,0.2,0.4,0.4,0.5c0,0,0,0.1,0.1,0.1c0.2,0.2,0.3,0.3,0.5,0.4l0.1,0.1c0.2,0.1,0.4,0.2,0.6,0.3l0,0l0,0
	c0.3,0.1,0.5,0.1,0.8,0.1H247c1.1,0,2.1-0.6,2.6-1.5L286.5,85H306.2z"/>
<path id="letter-o" class="st0" d="M405.8,21.5c0-0.1,0-0.2,0-0.3c0-0.2,0-0.3-0.1-0.5c0-0.1-0.1-0.2-0.1-0.3c0-0.1-0.1-0.3-0.2-0.4
	L395.3,1.6c-0.5-1-1.5-1.6-2.6-1.6h-42h-20.3h-6.9c-1.1,0-2.1,0.6-2.6,1.5l-26,45c-0.5,0.9-0.5,2.1,0,3s1.5,1.5,2.6,1.5l0,0
	l27.2-0.1c1.1,0,2.1-0.6,2.6-1.5l14.4-25h28.7l-53.7,93l-35.5-0.2c-1.1,0-2.1,0.6-2.6,1.5l-15.3,27c-0.5,0.9-0.5,2.1,0,3
	s1.5,1.5,2.6,1.5h37.2h27.2c0.3,0,0.5,0,0.8-0.1c0.1,0,0.2-0.1,0.2-0.1c0.2-0.1,0.3-0.1,0.5-0.2c0.1,0,0.2-0.1,0.2-0.2
	c0.1-0.1,0.3-0.2,0.4-0.3s0.1-0.2,0.2-0.2c0.1-0.1,0.2-0.2,0.2-0.3v-0.1c0,0,0,0,0-0.1L405.4,23c0.1-0.2,0.2-0.5,0.3-0.7
	c0-0.1,0-0.2,0-0.2C405.8,21.8,405.8,21.7,405.8,21.5z"/>
</svg>
