<?xml version="1.0" encoding="utf-8"?>
<!-- Generator: Adobe Illustrator 19.0.0, SVG Export Plug-In . SVG Version: 6.00 Build 0)  -->
<svg version="1.1" id="Camada_1" xmlns="http://www.w3.org/2000/svg" xmlns:xlink="http://www.w3.org/1999/xlink" x="0px" y="0px"
	 viewBox="-217 223.1 405.8 150.2" style="enable-background:new -217 223.1 405.8 150.2;" xml:space="preserve">
<style type="text/css">
	.st0{fill:#FFFFFF;}
</style>
<path id="XMLID_60_" class="st0" d="M-6.2,285.1c-0.5-0.9-1.5-1.5-2.6-1.5h-28.7c-1.1,0-2.1,0.6-2.6,1.5l-14,25.1v-84.1
	c0-1.7-1.3-3-3-3h-27.2c-1.7,0-3,1.3-3,3v144.2l0,0c0,0,0,0,0,0.1c0,0.2,0,0.4,0.1,0.6v0.1c0.1,0.2,0.2,0.4,0.3,0.6l0,0
	c0,0,0,0,0,0.1c0.1,0.2,0.2,0.3,0.4,0.5c0,0,0,0,0.1,0.1c0.2,0.2,0.3,0.3,0.5,0.4l0.1,0.1c0.2,0.1,0.4,0.2,0.6,0.3
	c0.3,0.1,0.5,0.1,0.8,0.1h27.2c1.1,0,2.1-0.6,2.6-1.5l48.4-83.7C-5.7,287.2-5.7,286-6.2,285.1z"/>
<path id="XMLID_67_" class="st0" d="M-100.6,225.4c0-0.1,0-0.1-0.1-0.2c-0.1-0.2-0.1-0.3-0.2-0.5v-0.1c0,0,0,0,0-0.1
	c-0.1-0.2-0.3-0.4-0.4-0.6l0,0c-0.2-0.2-0.3-0.3-0.5-0.4c-0.1,0-0.1-0.1-0.2-0.1c-0.2-0.1-0.3-0.1-0.5-0.2c-0.1,0-0.1,0-0.2-0.1
	c-0.4,0-0.6,0-0.8,0h-24.6h-2.6h-23.8c-1.1,0-2.1,0.6-2.6,1.5s-0.5,2.1,0,3l10.8,18.5c0.1,0.1,0.2,0.3,0.3,0.4l-70.6,122.3
	c-0.5,0.9-0.5,2.1,0,3s1.5,1.5,2.6,1.5h27.2c1.1,0,2.1-0.6,2.6-1.5l50.5-87.4v85.9c0,1.4,0.9,2.5,2.2,2.9c0.3,0.1,0.5,0.1,0.8,0.1
	c1.1,0,2.1-0.6,2.6-1.5l27.2-47.1c0.3-0.5,0.4-1,0.4-1.5v-97.1C-100.5,225.9-100.6,225.6-100.6,225.4z"/>
<path id="XMLID_76_" class="st0" d="M89.2,308.1c1.1,0,2-0.6,2.6-1.5l10.8-18.5c0.5-0.9,0.5-2.1,0-3c-0.5-0.9-1.5-1.5-2.6-1.5H78.4
	h-4.8H51.3c-0.3,0-0.5,0-0.8,0.1c-0.1,0-0.2,0.1-0.3,0.1c-0.2,0.1-0.3,0.1-0.4,0.2c-0.1,0.1-0.2,0.1-0.3,0.2
	c-0.1,0.1-0.3,0.2-0.4,0.3c-0.1,0.1-0.1,0.2-0.2,0.3s-0.2,0.2-0.3,0.4l-6.7,11.6c0,0.1-0.1,0.2-0.1,0.3l-8.7,15.1v-64.6h12.6
	c1.1,0,2-0.6,2.6-1.5l10.8-18.5c0.5-0.9,0.5-2.1,0-3s-1.5-1.5-2.6-1.5H30.1H2.9c-1.7,0-3,1.3-3,3v144.2c0,0.2,0,0.5,0.1,0.7v0.1
	c0.1,0.2,0.2,0.4,0.3,0.6l0,0c0,0,0,0,0,0.1c0.1,0.2,0.2,0.4,0.4,0.5c0,0,0,0.1,0.1,0.1c0.2,0.2,0.3,0.3,0.5,0.4l0.1,0.1
	c0.2,0.1,0.4,0.2,0.6,0.3l0,0l0,0c0.3,0.1,0.5,0.1,0.8,0.1H30c1.1,0,2.1-0.6,2.6-1.5l36.9-63.7H89.2z"/>
<path id="XMLID_56_" class="st0" d="M188.8,244.6c0-0.1,0-0.2,0-0.3c0-0.2,0-0.3-0.1-0.5c0-0.1-0.1-0.2-0.1-0.3
	c0-0.1-0.1-0.3-0.2-0.4l-10.1-18.4c-0.5-1-1.5-1.6-2.6-1.6h-42h-20.3h-6.9c-1.1,0-2.1,0.6-2.6,1.5l-26,45c-0.5,0.9-0.5,2.1,0,3
	c0.5,0.9,1.5,1.5,2.6,1.5l0,0l27.2-0.1c1.1,0,2.1-0.6,2.6-1.5l14.4-25h28.7l-53.7,93l-35.5-0.2c-1.1,0-2.1,0.6-2.6,1.5l-15.3,27
	c-0.5,0.9-0.5,2.1,0,3s1.5,1.5,2.6,1.5h37.2h27.2c0.3,0,0.5,0,0.8-0.1c0.1,0,0.2-0.1,0.2-0.1c0.2-0.1,0.3-0.1,0.5-0.2
	c0.1,0,0.2-0.1,0.2-0.2c0.1-0.1,0.3-0.2,0.4-0.3s0.1-0.2,0.2-0.2c0.1-0.1,0.2-0.2,0.2-0.3v-0.1c0,0,0,0,0-0.1l72.6-125.6
	c0.1-0.2,0.2-0.5,0.3-0.7c0-0.1,0-0.2,0-0.2C188.8,244.9,188.8,244.8,188.8,244.6z"/>
</svg>
